<mxfile host="app.diagrams.net" modified="2024-04-20T10:37:53.232Z" agent="Mozilla/5.0 (Windows NT 10.0; Win64; x64) AppleWebKit/537.36 (KHTML, like Gecko) Chrome/124.0.0.0 Safari/537.36 Edg/124.0.0.0" version="24.2.7" etag="LktsbUEAuPSDSGamn8Lx" type="github">
  <diagram name="Page-1" id="F57LAVR3ZTJBKyKEuYzu">
    <mxGraphModel>
      <root>
        <mxCell id="0" />
        <mxCell id="1" parent="0" />
      </root>
    </mxGraphModel>
  </diagram>
</mxfile>
